<svg width="8" height="5" viewBox="0 0 8 5" fill="none" xmlns="http://www.w3.org/2000/svg">
<path id="arrow" d="M3.37976 3.61328C3.37976 3.33714 3.60362 3.11328 3.87976 3.11328C4.1559 3.11328 4.37976 3.33714 4.37976 3.61328H3.37976ZM4.23331 4.06006C4.03805 4.25533 3.72147 4.25533 3.52621 4.06006L0.344227 0.878083C0.148965 0.682821 0.148965 0.366239 0.344227 0.170976C0.539489 -0.0242856 0.856071 -0.0242856 1.05133 0.170976L3.87976 2.9994L6.70819 0.170976C6.90345 -0.0242856 7.22003 -0.0242856 7.41529 0.170976C7.61056 0.366239 7.61056 0.682821 7.41529 0.878083L4.23331 4.06006ZM4.37976 3.61328V3.70651H3.37976V3.61328H4.37976Z" fill="#FFA645"/>
</svg>
