<svg width="40" height="40" viewBox="0 0 40 40" fill="none" xmlns="http://www.w3.org/2000/svg">
<path d="M31.6664 6.6665C32.1437 6.6665 32.5408 6.8249 32.8576 7.1417C33.1744 7.4585 33.3328 7.85557 33.3328 8.3329C33.3328 8.8017 33.1722 9.19664 32.8512 9.5177L22.356 19.9993L32.8512 30.4809C33.1722 30.802 33.3328 31.1969 33.3328 31.6657C33.3328 32.143 33.1744 32.5401 32.8576 32.8569C32.5408 33.1737 32.1437 33.3321 31.6664 33.3321C31.1976 33.3321 30.8026 33.1716 30.4816 32.8505L20 22.3553L9.51838 32.8505C9.19731 33.1716 8.80238 33.3321 8.33358 33.3321C7.85624 33.3321 7.45918 33.1737 7.14238 32.8569C6.82558 32.5401 6.66718 32.143 6.66718 31.6657C6.66718 31.1969 6.82771 30.802 7.14878 30.4809L17.644 19.9993L7.14878 9.5177C6.82771 9.19664 6.66718 8.8017 6.66718 8.3329C6.66718 7.85557 6.82558 7.4585 7.14238 7.1417C7.45918 6.8249 7.85624 6.6665 8.33358 6.6665C8.80238 6.6665 9.19731 6.82704 9.51838 7.1481L20 17.6433L30.4816 7.1481C30.8026 6.82704 31.1976 6.6665 31.6664 6.6665Z" fill="url(#paint0_linear_522_3)"/>
<defs>
<linearGradient id="paint0_linear_522_3" x1="49.9999" y1="-1.3335" x2="5.33328" y2="33.3332" gradientUnits="userSpaceOnUse">
<stop stop-color="#FFD75E"/>
<stop offset="1" stop-color="#FF9936"/>
</linearGradient>
</defs>
</svg>
