<svg width="50" height="46" viewBox="0 0 50 46" fill="none" xmlns="http://www.w3.org/2000/svg">
<path fill-rule="evenodd" clip-rule="evenodd" d="M8.09446 10.0379C6.67788 11.2481 5.72917 13.2117 5.72917 16.2918V29.7085C5.72917 32.7886 6.67788 34.7522 8.09446 35.9624C9.53198 37.1904 11.6979 37.8543 14.5833 37.8543H35.4167C38.3021 37.8543 40.4679 37.1904 41.9056 35.9624C43.3221 34.7522 44.2708 32.7886 44.2708 29.7085V16.2918C44.2708 13.2117 43.3221 11.2481 41.9056 10.0379C40.4679 8.80987 38.3021 8.146 35.4167 8.146H14.5833C11.6979 8.146 9.53198 8.80987 8.09446 10.0379ZM5.96805 7.93114C8.17636 6.04462 11.2188 5.271 14.5833 5.271H35.4167C38.7813 5.271 41.8238 6.04462 44.0319 7.93114C46.2613 9.83558 47.3958 12.6637 47.3958 16.2918V29.7085C47.3958 33.3368 46.2613 36.1648 44.0319 38.0692C41.8238 39.9558 38.7813 40.7293 35.4167 40.7293H14.5833C11.2188 40.7293 8.17636 39.9558 5.96805 38.0692C3.7388 36.1648 2.60417 33.3368 2.60417 29.7085V16.2918C2.60417 12.6637 3.7388 9.83558 5.96805 7.93114Z" fill="#CF5D3C"/>
<path fill-rule="evenodd" clip-rule="evenodd" d="M40.3402 14.0113C40.8679 14.6395 40.7421 15.5423 40.0594 16.0277L28.5029 24.2431C26.4396 25.7097 23.5602 25.7097 21.4969 24.2431L9.94051 16.0277C9.25765 15.5423 9.13184 14.6395 9.65949 14.0113C10.1871 13.383 11.1684 13.2673 11.8513 13.7527L23.4075 21.968C24.3454 22.6348 25.6544 22.6348 26.5921 21.968L38.1485 13.7527C38.8315 13.2673 39.8127 13.383 40.3402 14.0113Z" fill="#E7AE9D"/>
</svg>
