<svg width="47" height="42" viewBox="0 0 47 42" fill="none" xmlns="http://www.w3.org/2000/svg">
<path d="M27.4167 3.5C27.4167 3.5 31.725 3.85 37.2083 8.75C42.6917 13.65 43.0833 17.5 43.0833 17.5" stroke="#CF5D3C" stroke-width="4" stroke-linecap="round"/>
<path d="M27.8221 9.6875C27.8221 9.6875 29.7608 10.1825 32.6687 12.7811C35.5767 15.3797 36.1307 17.1121 36.1307 17.1121" stroke="#CF5D3C" stroke-width="4" stroke-linecap="round"/>
<path opacity="0.5" d="M19.657 9.3033L20.9279 11.3384C22.0749 13.175 21.6145 15.5843 19.808 17.1986C19.808 17.1986 17.6169 19.1569 21.5896 22.7071C25.5611 26.2561 27.7539 24.2993 27.7539 24.2993C29.5605 22.6849 32.2565 22.2735 34.3118 23.2985L36.5891 24.4342C39.6927 25.9819 40.0591 29.8711 37.3313 32.3089C35.6922 33.7736 33.6841 34.9134 31.4643 34.9885C27.7276 35.1152 21.3817 34.2701 15.0159 28.5815C8.65021 22.893 7.70449 17.2221 7.84616 13.8829C7.93031 11.8993 9.20573 10.1049 10.8449 8.64015C13.5727 6.20249 17.925 6.53002 19.657 9.3033Z" stroke="#CF5D3C" stroke-width="4" stroke-linecap="round"/>
</svg>
