<svg width="40" height="40" viewBox="0 0 40 40" fill="none" xmlns="http://www.w3.org/2000/svg">
<path fill-rule="evenodd" clip-rule="evenodd" d="M20.6634 29.6735C23.135 28.3915 31.6667 23.3607 31.6667 15.0002C31.6667 8.55685 26.4434 3.3335 20 3.3335C13.5567 3.3335 8.33337 8.55685 8.33337 15.0002C8.33337 23.3607 16.865 28.3915 19.3367 29.6735C19.758 29.892 20.242 29.892 20.6634 29.6735ZM20 20.0002C22.7615 20.0002 25 17.7617 25 15.0002C25 12.2387 22.7615 10.0002 20 10.0002C17.2385 10.0002 15 12.2387 15 15.0002C15 17.7617 17.2385 20.0002 20 20.0002Z" fill="#E7AE9D" fill-opacity="0.24"/>
<path d="M30.6667 15.0002C30.6667 18.818 28.7214 21.9273 26.3817 24.2872C24.043 26.6462 21.3939 28.168 20.203 28.7857L21.1239 30.5612C22.4045 29.8968 25.257 28.2623 27.802 25.6953C30.3462 23.1292 32.6667 19.5428 32.6667 15.0002H30.6667ZM20 4.3335C25.891 4.3335 30.6667 9.10913 30.6667 15.0002H32.6667C32.6667 8.00456 26.9957 2.3335 20 2.3335V4.3335ZM9.33337 15.0002C9.33337 9.10913 14.109 4.3335 20 4.3335V2.3335C13.0044 2.3335 7.33337 8.00456 7.33337 15.0002H9.33337ZM19.797 28.7857C18.6062 28.168 15.9571 26.6462 13.6183 24.2872C11.2787 21.9273 9.33337 18.818 9.33337 15.0002H7.33337C7.33337 19.5428 9.65396 23.1292 12.198 25.6953C14.743 28.2623 17.5955 29.8968 18.8762 30.5612L19.797 28.7857ZM20.203 28.7857C20.0702 28.8547 19.9299 28.8547 19.797 28.7857L18.8762 30.5612C19.5864 30.9295 20.4137 30.9295 21.1239 30.5612L20.203 28.7857ZM24 15.0002C24 17.2093 22.2092 19.0002 20 19.0002V21.0002C23.3137 21.0002 26 18.3138 26 15.0002H24ZM20 11.0002C22.2092 11.0002 24 12.791 24 15.0002H26C26 11.6865 23.3137 9.00016 20 9.00016V11.0002ZM16 15.0002C16 12.791 17.7909 11.0002 20 11.0002V9.00016C16.6864 9.00016 14 11.6865 14 15.0002H16ZM20 19.0002C17.7909 19.0002 16 17.2093 16 15.0002H14C14 18.3138 16.6864 21.0002 20 21.0002V19.0002Z" fill="#CF5D3C"/>
<path d="M32.9903 29.167C34.3068 29.9272 35 30.7893 35 31.667C35 32.5447 34.3068 33.4068 32.9903 34.167C31.6738 34.9272 29.7803 35.5583 27.5 35.9972C25.2197 36.436 22.633 36.667 20 36.667C17.367 36.667 14.7803 36.436 12.5 35.9972C10.2197 35.5583 8.32615 34.9272 7.00962 34.167C5.6931 33.4068 5 32.5447 5 31.667C5 30.7893 5.6931 29.9272 7.00962 29.167" stroke="#CF5D3C" stroke-width="3.2" stroke-linecap="round"/>
</svg>
