<svg width="1440" height="1222" viewBox="0 0 1440 1222" fill="none" xmlns="http://www.w3.org/2000/svg">
<path opacity="0.4" d="M237.32 345.536C237.833 540.5 147.94 452.084 -36.178 679.501C-220.296 906.917 -177.411 -121.764 -37.9322 13.0161C101.546 147.796 236.807 150.573 237.32 345.536Z" fill="url(#paint0_linear_451_113)"/>
<path opacity="0.4" d="M1227.74 466.198C1108.05 684.103 1276.17 647.469 1371.08 1029.76C1465.99 1412.06 2039.64 230.703 1780.25 284.85C1520.87 338.996 1347.44 248.292 1227.74 466.198Z" fill="url(#paint1_linear_451_113)"/>
<ellipse cx="1222" cy="729.5" rx="354" ry="373.5" fill="url(#paint2_radial_451_113)"/>
<ellipse opacity="0.5" cx="592" cy="848.5" rx="354" ry="373.5" fill="url(#paint3_radial_451_113)"/>
<defs>
<linearGradient id="paint0_linear_451_113" x1="87.9689" y1="656.648" x2="-171.913" y2="48.6049" gradientUnits="userSpaceOnUse">
<stop stop-color="#FFB800" stop-opacity="0.01"/>
<stop offset="1" stop-color="#FFB800" stop-opacity="0.3"/>
</linearGradient>
<linearGradient id="paint1_linear_451_113" x1="1227.41" y1="918.073" x2="1877.69" y2="358.431" gradientUnits="userSpaceOnUse">
<stop stop-color="#FFB800" stop-opacity="0.01"/>
<stop offset="1" stop-color="#FFB800" stop-opacity="0.3"/>
</linearGradient>
<radialGradient id="paint2_radial_451_113" cx="0" cy="0" r="1" gradientUnits="userSpaceOnUse" gradientTransform="translate(1189.76 755.818) rotate(158.982) scale(307.203 356.47)">
<stop stop-color="#FFB800" stop-opacity="0.09"/>
<stop offset="1" stop-color="#FFB800" stop-opacity="0.01"/>
</radialGradient>
<radialGradient id="paint3_radial_451_113" cx="0" cy="0" r="1" gradientUnits="userSpaceOnUse" gradientTransform="translate(559.764 874.818) rotate(158.982) scale(307.203 356.47)">
<stop stop-color="#FF005C" stop-opacity="0.09"/>
<stop offset="1" stop-color="#FF007A" stop-opacity="0.01"/>
</radialGradient>
</defs>
</svg>
